<?xml version="1.0" encoding="UTF-8" standalone="no"?>
<svg
   xmlns:dc="http://purl.org/dc/elements/1.1/"
   xmlns:cc="http://creativecommons.org/ns#"
   xmlns:rdf="http://www.w3.org/1999/02/22-rdf-syntax-ns#"
   xmlns:svg="http://www.w3.org/2000/svg"
   xmlns="http://www.w3.org/2000/svg"
   xmlns:sodipodi="http://sodipodi.sourceforge.net/DTD/sodipodi-0.dtd"
   xmlns:inkscape="http://www.inkscape.org/namespaces/inkscape"
   width="100"
   height="100"
   viewBox="0 0 10.24 10.24"
   preserveAspectRatio="xMidYMid"
   id="svg4422"
   version="1.1"
   inkscape:version="0.91 r13725"
   sodipodi:docname="slack.svg">
  <metadata
     id="metadata4444">
    <rdf:RDF>
      <cc:Work
         rdf:about="">
        <dc:format>image/svg+xml</dc:format>
        <dc:type
           rdf:resource="http://purl.org/dc/dcmitype/StillImage" />
        <dc:title></dc:title>
      </cc:Work>
    </rdf:RDF>
  </metadata>
  <defs
     id="defs4442" />
  <sodipodi:namedview
     pagecolor="#ffffff"
     bordercolor="#666666"
     borderopacity="1"
     objecttolerance="10"
     gridtolerance="10"
     guidetolerance="10"
     inkscape:pageopacity="0"
     inkscape:pageshadow="2"
     inkscape:window-width="795"
     inkscape:window-height="591"
     id="namedview4440"
     showgrid="false"
     inkscape:zoom="2.1360282"
     inkscape:cx="72.996535"
     inkscape:cy="84.745763"
     inkscape:window-x="0"
     inkscape:window-y="0"
     inkscape:window-maximized="0"
     inkscape:current-layer="svg4422" />
  <path
     d="M 6.640694,0.63045525 C 6.4850452,0.15130504 5.9704039,-0.11089716 5.4913337,0.04483166 5.0121835,0.20048046 4.7499813,0.7151218 4.9057101,1.194192 L 7.2643295,8.451067 C 7.4263003,8.8986873 7.9098119,9.1502062 8.3739574,9.0166443 8.8581092,8.8772806 9.1532017,8.3630794 8.9987133,7.8876103 L 6.640694,0.63045525"
     id="path4424"
     inkscape:connector-curvature="0"
     style="fill:#dfa22f" />
  <path
     d="M 2.9860283,1.8179475 C 2.8302995,1.3388373 2.3156982,1.0766351 1.836628,1.2322839 1.3574377,1.3879727 1.0951955,1.9025741 1.2509644,2.3817243 l 2.3586594,7.256915 C 3.7715546,10.08622 4.2551062,10.337778 4.7192517,10.204097 5.2033634,10.064813 5.4984559,9.5506117 5.3439675,9.0750626 L 2.9860283,1.8179475"
     id="path4426"
     inkscape:connector-curvature="0"
     style="fill:#3cb187" />
  <path
     d="M 9.6095447,6.6406194 C 10.088695,6.4849706 10.350817,5.9704093 10.195168,5.4912191 10.03952,5.0121489 9.5248782,4.7499067 9.045808,4.9055955 L 1.788933,7.2642949 C 1.3413127,7.4261857 1.0897938,7.9096973 1.2233557,8.3738428 1.3627194,8.8579545 1.8769206,9.1530871 2.3523897,8.9985986 l 7.257155,-2.3579392"
     id="path4428"
     inkscape:connector-curvature="0"
     style="fill:#ce1e5b" />
  <path
     d="M 3.3014072,8.690262 5.0358309,8.1267253 4.4722142,6.3921015 2.7376704,6.9558782 3.3014072,8.690302"
     id="path4430"
     inkscape:connector-curvature="0"
     style="fill:#392538" />
  <path
     d="M 6.9561129,7.5027297 C 7.6118385,7.2897429 8.2213095,7.0916808 8.6905767,6.939193 L 8.1268799,5.2042491 6.3923362,5.7680259 6.9561129,7.5027297"
     id="path4432"
     inkscape:connector-curvature="0"
     style="fill:#bb242a" />
  <path
     d="M 8.4220525,2.9859137 C 8.9011627,2.8302649 9.1633649,2.3156636 9.0077161,1.8364733 8.8520673,1.3574031 8.3374259,1.0952009 7.8582757,1.2508497 L 0.60136072,3.6095892 C 0.1537804,3.7713999 -0.09777846,4.2549515 0.03590345,4.719097 0.17518712,5.2031688 0.68938832,5.4983013 1.1649374,5.3438129 L 8.4220525,2.9858737"
     id="path4434"
     inkscape:connector-curvature="0"
     style="fill:#72c5cd" />
  <path
     d="M 2.1135948,5.0356363 C 2.5859429,4.8821481 3.1949338,4.6842461 3.8482986,4.4720196 3.6353119,3.816214 3.4372498,3.2067429 3.284762,2.7373958 L 1.5498181,3.3012525 2.1135948,5.0356363"
     id="path4436"
     inkscape:connector-curvature="0"
     style="fill:#248c73" />
  <path
     d="M 5.7682605,3.848184 7.5030444,3.2844873"
     id="path4438"
     inkscape:connector-curvature="0"
     style="fill:#62803a" />
</svg>
