<?xml version="1.0" encoding="UTF-8" standalone="no"?>
<svg
   xmlns:dc="http://purl.org/dc/elements/1.1/"
   xmlns:cc="http://creativecommons.org/ns#"
   xmlns:rdf="http://www.w3.org/1999/02/22-rdf-syntax-ns#"
   xmlns:svg="http://www.w3.org/2000/svg"
   xmlns="http://www.w3.org/2000/svg"
   xmlns:sodipodi="http://sodipodi.sourceforge.net/DTD/sodipodi-0.dtd"
   xmlns:inkscape="http://www.inkscape.org/namespaces/inkscape"
   version="1.1"
   id="Layer_1"
   x="0px"
   y="0px"
   viewBox="0 0 100 100"
   enable-background="new 0 0 244 244"
   xml:space="preserve"
   inkscape:version="0.91 r13725"
   sodipodi:docname="strava.svg"
   width="100"
   height="100"><metadata
     id="metadata3444"><rdf:RDF><cc:Work
         rdf:about=""><dc:format>image/svg+xml</dc:format><dc:type
           rdf:resource="http://purl.org/dc/dcmitype/StillImage" /><dc:title /></cc:Work></rdf:RDF></metadata><defs
     id="defs3442" /><sodipodi:namedview
     pagecolor="#ffffff"
     bordercolor="#666666"
     borderopacity="1"
     objecttolerance="10"
     gridtolerance="10"
     guidetolerance="10"
     inkscape:pageopacity="0"
     inkscape:pageshadow="2"
     inkscape:window-width="982"
     inkscape:window-height="770"
     id="namedview3440"
     showgrid="false"
     inkscape:zoom="2.4053544"
     inkscape:cx="77.819748"
     inkscape:cy="56.071522"
     inkscape:window-x="374"
     inkscape:window-y="19"
     inkscape:window-maximized="0"
     inkscape:current-layer="g3484"
     showguides="true"
     inkscape:guide-bbox="true"><sodipodi:guide
       position="123.47453,49.888698"
       orientation="0,1"
       id="guide4521" /><sodipodi:guide
       position="49.888698,29.101741"
       orientation="1,0"
       id="guide4523" /></sodipodi:namedview><g
     id="g3484"
     transform="matrix(0.41666667,0,0,0.41666667,-0.8333333,-1.6648116)"><g
       id="g3428"
       transform="matrix(1.1829252,0,0,1.1330366,-21.130234,-14.854942)"><path
         id="path3430"
         d="M 122,242 C 55.8,242 2,188.2 2,122 2,55.8 55.8,2 122,2 c 66.2,0 120,53.8 120,120 0,66.2 -53.8,120 -120,120 z m 0,-220.3 c -55.3,0 -100.3,45 -100.3,100.3 0,55.3 45,100.3 100.3,100.3 55.3,0 100.3,-45 100.3,-100.3 0,-55.3 -45,-100.3 -100.3,-100.3 z"
         inkscape:connector-curvature="0"
         style="fill:none" /><path
         id="path3432"
         d="m 122,21.7 c -55.3,0 -100.3,45 -100.3,100.3 0,55.3 45,100.3 100.3,100.3 55.3,0 100.3,-45 100.3,-100.3 0,-55.3 -45,-100.3 -100.3,-100.3 z"
         inkscape:connector-curvature="0"
         style="fill:#fc4c02;fill-opacity:1" /><g
         id="g3434"><polyline
           id="polyline3436"
           points="139.4,184.3 112.3,131.1 128.4,131.1 139.4,152.6 150.2,131.1 166.3,131.1 139.4,184.3   "
           style="fill:#ffffff" /><polygon
           id="polygon3438"
           points="77.7,131.2 99.3,131.2 113.9,102.2 113.9,102.2 128.6,131.2 150.1,131.2 113.7,59.7 "
           style="fill:#ffffff" /></g></g></g></svg>